# xmcd CD database file
#
# Track frame offsets:
#	150
#	6235
#	25098
#	43336
#	61374
#	80438
#	102373
#	123171
#	143832
#	160563
#	179849
#	189617
#	201287
#	227973
#	247584
#	266247
#	285497
#	304428
#	328081
#
# Disc length: 4629 seconds
#
# Revision: 4
# Processed by: cddbd v1.4PL0 Copyright (c) Steve Scherf et al.
# Submitted via: CDex 1.40Beta8
#
DISCID=13121313
DTITLE=Snoop Dogg - Tha Last Meal
DYEAR=2000
DGENRE=Rap
TTITLE0=Intro
TTITLE1=Hennesey N Buddah
TTITLE2=Snoop Dogg (What's My Name Pt. 2)
TTITLE3=True Lies
TTITLE4=Wrong Idea
TTITLE5=Go Away
TTITLE6=Set It Off
TTITLE7=Stacey Adams
TTITLE8=Lay Low
TTITLE9=Bring It On
TTITLE10=Game Court
TTITLE11=Issues
TTITLE12=Brake Fluid (Bitch Pump Yo Brakes)
TTITLE13=Ready 2 Ryde
TTITLE14=Loosen' Control
TTITLE15=I Can't Swim
TTITLE16=Leave Me Alone
TTITLE17=Back Up Off Me
TTITLE18=Y'all Gone Miss Me
EXTD=YEAR: 2000 ID3G: 15
EXTT0=
EXTT1=
EXTT2=
EXTT3=
EXTT4=
EXTT5=
EXTT6=
EXTT7=
EXTT8=
EXTT9=
EXTT10=
EXTT11=
EXTT12=
EXTT13=
EXTT14=
EXTT15=
EXTT16=
EXTT17=
EXTT18=
PLAYORDER=
